Coordinates
version=1
nRows=13
nColumns=36
inDegrees=yes

Units are S.I. units (second, meters, Newtons, ...)
If the header above contains a line with 'inDegrees', this indicates whether rotational values are in degrees (yes) or radians (no).

endheader
time	pelvis_tilt	pelvis_list	pelvis_rotation	pelvis_tx	pelvis_ty	pelvis_tz	hip_flexion_r	hip_adduction_r	hip_rotation_r	knee_angle_r	knee_angle_r_beta	ankle_angle_r	subtalar_angle_r	mtp_angle_r	hip_flexion_l	hip_adduction_l	hip_rotation_l	knee_angle_l	knee_angle_l_beta	ankle_angle_l	subtalar_angle_l	mtp_angle_l	lumbar_extension	lumbar_bending	lumbar_rotation	arm_flex_r	arm_add_r	arm_rot_r	elbow_flex_r	pro_sup_r	arm_flex_l	arm_add_l	arm_rot_l	elbow_flex_l	pro_sup_l
      0.34000000	     -0.21985996	     -1.12537274	      3.46300406	      0.26118614	      1.04533185	     -0.26405030	     -1.64228590	      5.84957221	     -1.65748300	      4.50334475	      0.07859819	      6.32225587	    -10.05801526	     -5.59232125	     31.65838329	     -5.84327832	     -7.26890333	     61.90586041	      1.08046109	     -5.66997894	     -1.37374613	     -5.59232125	    -10.63163024	      3.64603157	      6.46041725	     -0.32078528	     -9.96959358	     -9.31833028	     40.26717146	    109.42699956	     -7.31569363	    -10.51820231	     -1.60123686	     36.15785250	    109.90822174
      0.35000000	      0.03479633	     -0.81839851	      3.09534193	      0.27313513	      1.04569749	     -0.26348424	     -2.98998937	      5.59244687	     -1.25922705	      3.96148901	      0.06914103	      6.91794114	     -9.69914373	     -5.63037522	     31.67719582	     -5.42965609	     -7.88508475	     58.87754681	      1.02760705	     -5.36352361	     -1.54604101	     -5.63037522	    -11.13467650	      3.14827870	      7.13699829	      0.15501246	    -10.24632150	     -9.19268958	     40.75960772	    109.34332800	     -7.90968721	    -10.69555652	     -2.29224050	     36.52853439	    109.64920165
      0.36000000	     -0.25711560	     -0.68336065	      2.86443569	      0.28501886	      1.04486270	     -0.26323066	     -3.71912677	      5.47747852	     -0.86750092	      3.42045923	      0.05969828	      7.26697812	     -9.51750232	     -5.64715263	     32.29612011	     -4.99297848	     -8.09958183	     55.70811280	      0.97228999	     -4.98085350	     -1.67964525	     -5.64715263	    -10.88815454	      2.85696965	      7.66819680	      0.47354496	    -10.52364691	     -9.11254574	     41.23746297	    109.27062347	     -8.52443592	    -10.90133309	     -2.64967218	     36.56156534	    109.45124645
      0.37000000	     -0.03354589	     -0.41851230	      2.59769129	      0.29706758	      1.04468279	     -0.26306825	     -5.04304620	      5.22842363	     -0.66765938	      2.85337957	      0.04980087	      7.88388077	     -9.02318623	     -5.71371328	     32.04901970	     -4.45046340	     -8.45573138	     52.01301377	      0.90779834	     -5.10547485	     -2.47674639	     -5.71371328	    -11.31853322	      2.43728484	      8.07402996	      1.00769364	    -10.78424367	     -8.90321202	     41.68555391	    109.26187834	     -9.20516975	    -10.89998606	     -3.79472953	     36.94632108	    109.04331580
      0.38000000	     -0.14589780	     -0.30326549	      2.35438183	      0.30910985	      1.04362400	     -0.26292108	     -5.95402396	      5.12740659	     -0.33760478	      2.37309837	      0.04141838	      8.35415427	     -8.95190243	     -5.74275704	     32.09050938	     -4.00838095	     -8.57296282	     48.14810134	      0.84034290	     -4.87808785	     -2.85406715	     -5.74275704	    -11.28308341	      2.17738602	      8.56994979	      1.35057222	    -11.07378141	     -8.76102201	     42.17405089	    109.22598393	     -9.74100644	    -10.99884843	     -4.31301451	     36.90263155	    108.78589165
      0.39000000	     -0.21956090	     -0.23367231	      2.17623842	      0.32123082	      1.04237205	     -0.26293701	     -6.93233071	      5.07111542	     -0.08866727	      1.84689272	      0.03223436	      8.81572580	     -8.77529089	     -5.77355498	     31.93328414	     -3.54177278	     -8.52141244	     43.96514003	      0.76733645	     -4.85594462	     -3.53892979	     -5.77355498	    -11.30725671	      1.98815862	      8.95718450	      1.69446211	    -11.35015589	     -8.66608035	     42.68899975	    109.19098989	    -10.27082748	    -11.02890621	     -4.96192363	     36.89513033	    108.48249487
      0.40000000	     -0.35466583	     -0.24308451	      2.05018258	      0.33337574	      1.04068789	     -0.26316941	     -7.82179892	      5.08149242	     -0.08715495	      1.37133491	      0.02393431	      9.46298896	     -8.14295174	     -5.84507091	     31.72669223	     -3.06220678	     -8.18825401	     39.54274676	      0.69015113	     -5.31302069	     -4.89953182	     -5.84507091	    -11.24579718	      1.89554855	      9.15999287	      2.13958324	    -11.58570388	     -8.52382246	     43.13891980	    109.22212630	    -10.93170558	    -10.91486966	     -6.07958464	     37.12951782	    107.99795399
      0.41000000	     -0.53135669	     -0.33146187	      1.94547217	      0.34567125	      1.03867892	     -0.26339092	     -8.60909838	      5.17993172	     -0.05281939	      1.04837461	      0.01829759	     10.13953347	     -7.71206487	     -5.91394024	     31.41502250	     -2.70828519	     -7.84470232	     34.89518585	      0.60903589	     -5.39697586	     -5.74896762	     -5.91394024	    -11.09888219	      1.88649169	      9.40392394	      2.46220466	    -11.83427493	     -8.38622869	     43.60803197	    109.25185003	    -11.45471275	    -10.82246185	     -6.88957901	     37.12030049	    107.61550466
      0.42000000	     -0.94238938	     -0.57909060	      1.83952797	      0.35805203	      1.03598794	     -0.26354882	     -9.11407295	      5.44978404	      0.13352107	      0.78999220	      0.01378796	     10.64617745	     -7.60983966	     -5.93503224	     31.32557860	     -2.57870957	     -7.43279413	     30.24582332	      0.52788920	     -4.99454081	     -5.91042233	     -5.93503224	    -10.64758035	      2.05747006	      9.71742782	      2.64984231	    -12.07275515	     -8.32802944	     44.12532442	    109.11863962	    -11.93546180	    -10.77583818	     -7.31466009	     36.95726560	    107.33570550
      0.43000000	     -0.97464966	     -0.65930376	      1.76422258	      0.37061404	      1.03378058	     -0.26399216	     -9.99836543	      5.52515760	     -0.25989805	      0.61609771	      0.01075293	     11.55566454	     -6.70332306	     -5.98764426	     30.56155847	     -2.20654716	     -6.95697383	     25.13020962	      0.43860490	     -5.58903128	     -7.18563546	     -5.98764426	    -10.66784182	      2.05796350	      9.85467912	      2.97770011	    -12.26041614	     -8.35299201	     44.66435557	    109.10182927	    -12.35802907	    -10.59604156	     -8.37293218	     36.89695326	    106.97336860
      0.44000000	     -1.29076950	     -0.88914442	      1.71381603	      0.38329377	      1.03085407	     -0.26442481	    -10.53357800	      5.76214095	     -0.59044879	      0.53621659	      0.00935874	     12.48748786	     -5.86589955	     -6.05110914	     30.11773114	     -2.04062769	     -6.36642882	     20.12291649	      0.35121115	     -5.66297178	     -7.64038235	     -6.05110914	    -10.30683038	      2.22069775	      9.97895651	      3.21693249	    -12.43725611	     -8.29835332	     45.11725405	    109.10674395	    -12.82444414	    -10.41733955	     -9.25702222	     36.81136526	    106.69657037
      0.45000000	     -1.86169658	     -1.29006324	      1.59041307	      0.39602700	      1.02732445	     -0.26460477	    -10.76080221	      6.18027575	     -0.41889744	      0.49497350	      0.00863892	     12.94471161	     -5.77301380	     -6.06631011	     30.03172521	     -2.19465194	     -5.97607114	     15.43256275	      0.26934903	     -5.07050803	     -6.89321428	     -6.06631011	     -9.62110212	      2.55403258	     10.19732434	      3.35320281	    -12.59236255	     -8.26433646	     45.57476150	    109.00523009	    -13.26282677	    -10.34771752	     -9.61413457	     36.55314764	    106.50662943
      0.46000000	     -1.83605158	     -1.40855436	      1.53245867	      0.40909304	      1.02467271	     -0.26517221	    -11.64770575	      6.28963497	     -1.06620999	      0.44989232	      0.00785210	     14.01848183	     -4.62233960	     -6.13263287	     29.03169237	     -2.00202082	     -5.39723981	     10.45982928	      0.18255846	     -5.19880051	     -6.62588642	     -6.13263287	     -9.67075866	      2.58188079	     10.34400135	      3.56355339	    -12.68050157	     -8.40351273	     46.04513323	    109.15211069	    -13.49608012	    -10.09422360	    -10.75481044	     36.33050033	    106.43724872
